<svg xmlns="http://www.w3.org/2000/svg" width="200.231" height="164.888" viewBox="0 0 200.231 164.888">
  <g id="Grupo_15" data-name="Grupo 15" transform="translate(-1066.556 -1197.243)">
    <g id="Grupo_7" data-name="Grupo 7" transform="translate(1096.698 1248.214)">
      <path id="Trazado_2" data-name="Trazado 2" stroke="#414fb0" d="M1091.986,1241.069l14.259-16.555a10.891,10.891,0,0,1,14.411-1.875c5.426,3.723,12.582,8.63,18.146,12.446a10.891,10.891,0,0,0,14.959-2.563l4.576-6.279" fill="none" transform="translate(-1091.986 -1220.731)" stroke-linecap="round" stroke-linejoin="round" stroke-miterlimit="1.5" stroke-width="3.552" fill-rule="evenodd"/>
    </g>
    <path id="Trazado_3" data-name="Trazado 3" d="M1067.486,1559.307a18.53,18.53,0,0,1,7.113-1.276c4.753-.12,8.878.779,9.207,2.007a.649.649,0,0,1-.128.57c13.693-3.916,35.191-7.444,54.655-7.938h0c.766-.019,2.466-.435,2.393.152-.065.532.084,1.1-.011,1.469a1.008,1.008,0,0,1-.1.247,1.837,1.837,0,0,0-.234,1.48c.63,2.357,5.73,4.155,11.379,4.011s9.725-2.176,9.1-4.533h0a1.256,1.256,0,0,1,.733-1.372,3.774,3.774,0,0,1,2.265-.432,155.868,155.868,0,0,1,18.142,3.015,78.644,78.644,0,0,1,20.518-3.031c21.857-.557,41.53,6.195,43.9,15.067,2.132,7.965-10.4,14.95-28.8,16.7a15.448,15.448,0,0,0-8.3,3.1c-5.624,4.674-15,8.639-26.881,11.181-.97.209-1.605.777-1.575,1.4s.722,1.165,1.711,1.339c5.646.986,9.323,2.145,9.679,3.479,2.007,7.5-19.651,14.185-48.338,14.912s-53.6-4.769-55.611-12.273a3.947,3.947,0,0,1-.046-1.553c1.241-1.977,12.588,2.765,21.515,2.509,10.719-.307,18.106-5.649.837-8.528h0c-37.774-4.88,22.066-19.157-35.414-30.246-3.84-.741-5.584-1.749-5.638-2.908h0v-1.114h.421c1.046-1.374,3.99-2.895,8.283-4.413-.774.081-1.6.136-2.471.157-4.753.12-8.878-.777-9.207-2.007a.542.542,0,0,1-.016-.228h-.005v-1.114h.926Zm16.078,42.358a7.855,7.855,0,0,1,4.128-1.037,9.78,9.78,0,0,1,5.03,1.037h.88v1.114h0c.1,1.111-1.966,2.042-4.769,2.113-2.93.073-5.565-.82-5.88-2a1.013,1.013,0,0,1-.025-.117h-.014v-1.114Zm140.786-7.428c5.649-.141,10.513.774,11.439,3.294a6.683,6.683,0,0,1,.043,1.377c-.1,2.021-4.093,3.745-9.2,3.875-5.652.144-10.752-1.654-11.382-4.011a9.962,9.962,0,0,1-.06-1.42C1215.342,1595.261,1219.188,1594.371,1224.35,1594.238Zm14.883-6.322c2.724-.071,5.318-.019,5.9,1.035a6.218,6.218,0,0,1-.084,1.583c-.426.894-2.284,1.583-4.679,1.643-2.93.076-5.565-.82-5.88-2a5.1,5.1,0,0,1-.03-1.347C1234.814,1587.9,1236.767,1587.978,1239.233,1587.915Zm-166.367-5.426c.931-1.714,4.424-3.017,8.91-3.131,4.924-.125,9.427,1.222,10.923,3.131h.5v1.076c.361,2.273-3.642,4.2-9.136,4.337-5.649.144-10.749-1.654-11.379-4.011a1.839,1.839,0,0,1-.054-.288h0v-.027a1.688,1.688,0,0,1,0-.331v-.755Z" transform="translate(-0.003 -258.784)" fill="#63b4f5" fill-rule="evenodd"/>
    <g id="Grupo_8" data-name="Grupo 8" transform="translate(1066.556 1292.639)">
      <path id="Trazado_4" data-name="Trazado 4" d="M1267.353,839.782c13.693-3.917,35.191-7.444,54.653-7.939h0a3.053,3.053,0,0,1,1.955.568.983.983,0,0,1,.329,1.3,1.835,1.835,0,0,0-.234,1.48c.63,2.358,5.73,4.156,11.379,4.013s9.725-2.175,9.1-4.533h0a1.256,1.256,0,0,1,.733-1.372,3.766,3.766,0,0,1,2.265-.431,155.631,155.631,0,0,1,18.139,3.015,78.556,78.556,0,0,1,20.521-3.033c21.857-.557,41.53,6.2,43.9,15.07,2.132,7.964-10.4,14.947-28.8,16.694a15.445,15.445,0,0,0-8.3,3.1c-5.624,4.673-15,8.64-26.884,11.181-.967.208-1.6.774-1.572,1.4s.723,1.166,1.711,1.339c5.646.986,9.321,2.145,9.679,3.478,2.007,7.5-19.651,14.186-48.338,14.914s-53.6-4.771-55.611-12.272c-.961-3.587,11.651,1.235,21.466.954,10.722-.307,18.109-5.649.839-8.527h0c-37.774-4.881,22.066-19.156-35.414-30.246-9.261-1.787-6.322-5.114,3.066-8.436-.774.083-1.6.137-2.471.159-4.753.122-8.881-.778-9.209-2s3.264-2.323,8.02-2.444,8.878.778,9.207,2A.659.659,0,0,1,1267.353,839.782Zm4.014,40.02c2.93-.074,5.565.821,5.88,2s-1.809,2.191-4.739,2.266-5.567-.819-5.88-2S1268.437,879.877,1271.367,879.8Zm136.656-6.39c5.652-.144,10.752,1.655,11.382,4.013s-3.444,4.389-9.1,4.533-10.749-1.655-11.379-4.013S1402.374,873.556,1408.023,873.412Zm14.885-6.324c2.93-.074,5.565.821,5.88,2s-1.809,2.191-4.739,2.266-5.567-.819-5.88-2S1419.978,867.162,1422.908,867.088Zm-157.456-8.557c5.652-.144,10.749,1.655,11.382,4.013s-3.444,4.387-9.1,4.531-10.749-1.653-11.379-4.011S1259.8,858.675,1265.452,858.531Z" transform="translate(-1250.234 -831.842)" fill="#6bc1ff" fill-rule="evenodd"/>
    </g>
    <path id="Trazado_5" data-name="Trazado 5" d="M1191.85,1552.575a250.031,250.031,0,0,1,37.747-4.068h0a3.053,3.053,0,0,1,1.955.568.985.985,0,0,1,.326,1.3,1.829,1.829,0,0,0-.233,1.477c.63,2.357,5.73,4.155,11.379,4.014s9.725-2.175,9.1-4.535h0a1.256,1.256,0,0,1,.733-1.371,3.772,3.772,0,0,1,2.265-.429c3.579.388,7.053.877,10.393,1.456L1251.6,1583.8c-13.671,5.087-35.609-13.883-55.66-27.353h0A17.238,17.238,0,0,1,1191.85,1552.575Z" transform="translate(-91.267 -255.868)" fill="rgba(0,0,0,0.07)" fill-rule="evenodd"/>
    <g id="Grupo_9" data-name="Grupo 9" transform="translate(1100.942 1269.682)">
      <path id="Trazado_6" data-name="Trazado 6" d="M1319.076,1470.035a4.411,4.411,0,0,0-4.765-6.005l-121.141,18.641,59.4,39.554,102.012-15.7a5.235,5.235,0,0,0,.39-10.272h0a7.614,7.614,0,0,1-4.872-3.624c-.375-.656-.794-1.389-1.24-2.162a16.682,16.682,0,0,0-17.209-8.158l-2.4.4a9.321,9.321,0,0,1-10.175-12.672Z" transform="translate(-1193.17 -1463.978)" fill="#5969f6" fill-rule="evenodd"/>
    </g>
    <g id="Grupo_10" data-name="Grupo 10" transform="translate(1091.287 1251.377)">
      <path id="Trazado_7" data-name="Trazado 7" d="M2066.559,1903.165a22.093,22.093,0,0,1-9.577-18.3c0-12.117,9.209-21.577,21.014-21.577,5.569,0,9.847,1.813,14.826,5.4h0l45.2,31.026-22.016,37.57-49.447-34.118Z" transform="translate(-2056.982 -1863.29)" fill="#5969f6" fill-rule="evenodd"/>
    </g>
    <g id="Grupo_11" data-name="Grupo 11" transform="translate(1138.945 1284.023)">
      <ellipse id="Elipse_1" data-name="Elipse 1" cx="21.389" cy="21.952" rx="21.389" ry="21.952" transform="translate(0 0)" fill="#5261e5"/>
    </g>
    <g id="Grupo_12" data-name="Grupo 12" transform="translate(1150.1 1295.469)">
      <ellipse id="Elipse_2" data-name="Elipse 2" cx="10.238" cy="10.507" rx="10.238" ry="10.507" transform="translate(0 0)" fill="#fff"/>
    </g>
    <g id="Grupo_13" data-name="Grupo 13" transform="translate(1159.369 1197.243)">
      <path id="Trazado_8" data-name="Trazado 8" d="M1514.258,1262.194a3.785,3.785,0,0,1,4.459-1.559,35.048,35.048,0,0,1,9.429,4.964,31.925,31.925,0,0,1,7.542,9.225,2.381,2.381,0,0,1-.3,2.746c-6.067,6.819-35.267,39.626-35.267,39.626a7.648,7.648,0,0,1-10.222,1.092h0a9.831,9.831,0,0,1-2.531-13.155C1495.022,1292.91,1509.514,1269.771,1514.258,1262.194Z" transform="translate(-1485.866 -1260.421)" fill="#5261e5" fill-rule="evenodd"/>
    </g>
    <g id="Grupo_14" data-name="Grupo 14" transform="translate(1150.098 1295.469)">
      <path id="Trazado_9" data-name="Trazado 9" d="M1629.665-1843.042c4.334.372,7.721,3.46,7.721,7.21,0,4-3.856,7.248-8.606,7.248-4.185,0-7.675-2.52-8.449-5.853a10.811,10.811,0,0,0-.16,1.863,10.381,10.381,0,0,0,10.239,10.507,10.38,10.38,0,0,0,10.236-10.507,10.378,10.378,0,0,0-10.236-10.507c-.253,0-.5.008-.747.027Z" transform="translate(-1620.17 1843.08)" fill="#eee" fill-rule="evenodd"/>
    </g>
  </g>
</svg>
