<svg xmlns="http://www.w3.org/2000/svg" width="213.484" height="167.634" viewBox="0 0 213.484 167.634">
  <g id="Grupo_59" data-name="Grupo 59" transform="translate(-406.912 -906.418)">
    <g id="Grupo_40" data-name="Grupo 40" transform="translate(406.912 976.068)">
      <path id="Trazado_28" data-name="Trazado 28" d="M494.459,1133.34a2.285,2.285,0,0,0-1.7-.375L408.8,1147.826a2.285,2.285,0,0,0-.909,4.123l112.7,78.555a2.285,2.285,0,0,0,1.7.375l83.957-14.861a2.285,2.285,0,0,0,.908-4.123Z" transform="translate(-406.912 -1132.929)" fill="#5969f6" fill-rule="evenodd"/>
    </g>
    <g id="Grupo_41" data-name="Grupo 41" transform="translate(419.738 975.935)">
      <path id="Trazado_29" data-name="Trazado 29" d="M1023.22,1197.712l-83.2,14.726-104.4-80.848,73.949-13.09Z" transform="translate(-835.626 -1118.5)" fill="rgba(0,0,0,0.07)" fill-rule="evenodd"/>
    </g>
    <g id="Grupo_42" data-name="Grupo 42" transform="translate(425.007 944.502)">
      <path id="Trazado_30" data-name="Trazado 30" d="M554.62,1030.979a2.285,2.285,0,0,0-2.049-.671l-84.924,15.033a2.285,2.285,0,0,0-1.253,3.827l97.651,102.212a2.284,2.284,0,0,0,2.049.671l84.924-15.032a2.285,2.285,0,0,0,1.253-3.828Z" transform="translate(-465.761 -1030.273)" fill="#6bc1ff" fill-rule="evenodd"/>
    </g>
    <g id="Grupo_43" data-name="Grupo 43" transform="translate(438.828 944.323)">
      <path id="Trazado_31" data-name="Trazado 31" d="M1070.957,1119.369l-87.942,15.568-85.307-106.115L971.9,1015.69Z" transform="translate(-897.708 -1015.69)" fill="rgba(0,0,1,0.07)" fill-rule="evenodd"/>
    </g>
    <g id="Grupo_44" data-name="Grupo 44" transform="translate(455.701 912.396)">
      <path id="Trazado_32" data-name="Trazado 32" d="M655.947,927.8a3.911,3.911,0,0,0-4.063-1.885l-84.417,14.943a2.285,2.285,0,0,0-1.577,3.4l71.937,123.711a2.284,2.284,0,0,0,2.373,1.1l85.536-15.141a2.285,2.285,0,0,0,1.577-3.4Z" transform="translate(-565.581 -925.86)" fill="#fff" fill-rule="evenodd"/>
    </g>
    <g id="Grupo_45" data-name="Grupo 45" transform="translate(457.273 912.394)">
      <path id="Trazado_33" data-name="Trazado 33" d="M957.7,926.934a2.275,2.275,0,0,1,.31-.078l84.418-14.943a3.914,3.914,0,0,1,4.065,1.885c9.163,15.76,61.393,105.582,71.365,122.725a2.3,2.3,0,0,1,.3,1.282,2.071,2.071,0,0,1-.31.077l-85.534,15.141a2.278,2.278,0,0,1-2.374-1.1c-7.269-12.5-61.734-106.161-71.937-123.708A2.285,2.285,0,0,1,957.7,926.934Z" transform="translate(-957.693 -911.853)" fill="rgba(0,0,0,0.07)" fill-rule="evenodd"/>
    </g>
    <g id="Grupo_46" data-name="Grupo 46" transform="translate(458.353 906.418)">
      <path id="Trazado_34" data-name="Trazado 34" d="M664.573,908.363a3.911,3.911,0,0,0-4.063-1.885L576.093,921.42a2.285,2.285,0,0,0-1.577,3.4l71.938,123.711a2.284,2.284,0,0,0,2.373,1.1l85.537-15.141a2.285,2.285,0,0,0,1.577-3.4Z" transform="translate(-574.207 -906.418)" fill="#fff" fill-rule="evenodd"/>
    </g>
    <g id="Grupo_47" data-name="Grupo 47" transform="translate(472.75 922.019)">
      <path id="Trazado_35" data-name="Trazado 35" d="M658.262,957.567a1.385,1.385,0,0,0-1.439-.37L622,963.36a1.532,1.532,0,0,0-.781.376c-.186.182-.243.383-.153.537l17.262,29.687a.809.809,0,0,0,.84.216l35.281-6.245a1.532,1.532,0,0,0,.781-.376c.186-.182.243-.383.153-.537Z" transform="translate(-621.028 -957.157)" fill="#5969f6" fill-rule="evenodd"/>
    </g>
    <g id="Grupo_48" data-name="Grupo 48" transform="translate(525.453 952.088)">
      <path id="Trazado_36" data-name="Trazado 36" d="M829.658,1055.356a1.385,1.385,0,0,0-1.439-.37l-34.819,6.164a1.532,1.532,0,0,0-.781.376c-.186.182-.243.383-.153.537l17.262,29.687a.809.809,0,0,0,.84.216l35.281-6.245a1.532,1.532,0,0,0,.781-.376c.186-.182.243-.383.153-.537Z" transform="translate(-792.424 -1054.946)" fill="#6bc1ff" fill-rule="evenodd"/>
    </g>
    <g id="Grupo_49" data-name="Grupo 49" transform="translate(513.607 916.271)">
      <path id="Trazado_37" data-name="Trazado 37" d="M780.994,938.5c-.036-.062-.383-.047-.867.039L754.8,943.022a4.891,4.891,0,0,0-.636.156c-.178.059-.275.111-.258.139l3.155,5.427c.021.036.223.027.507-.023l25.667-4.543a4.872,4.872,0,0,0,.636-.156c.178-.059.275-.111.258-.139Z" transform="translate(-753.899 -938.461)" fill="#eee" fill-rule="evenodd"/>
    </g>
    <g id="Grupo_50" data-name="Grupo 50" transform="translate(518.402 924.527)">
      <path id="Trazado_38" data-name="Trazado 38" d="M796.589,965.35c-.036-.062-.383-.047-.867.039l-25.332,4.484a4.887,4.887,0,0,0-.636.156c-.178.059-.275.111-.258.139l3.155,5.427c.021.036.223.027.507-.023l25.668-4.543a4.881,4.881,0,0,0,.636-.156c.178-.059.275-.111.258-.139Z" transform="translate(-769.494 -965.312)" fill="#eee" fill-rule="evenodd"/>
    </g>
    <g id="Grupo_51" data-name="Grupo 51" transform="translate(523.55 933.179)">
      <path id="Trazado_39" data-name="Trazado 39" d="M813.33,993.486c-.036-.062-.383-.047-.868.039l-25.332,4.484a4.878,4.878,0,0,0-.636.156c-.178.059-.275.111-.258.139l3.155,5.427c.021.036.223.027.507-.023l25.667-4.543a4.868,4.868,0,0,0,.636-.156c.178-.059.275-.111.258-.139Z" transform="translate(-786.235 -993.448)" fill="#eee" fill-rule="evenodd"/>
    </g>
    <g id="Grupo_52" data-name="Grupo 52" transform="translate(528.345 941.434)">
      <path id="Trazado_40" data-name="Trazado 40" d="M828.926,1020.333c-.036-.062-.383-.047-.868.039l-25.332,4.484a4.879,4.879,0,0,0-.636.156c-.178.059-.275.111-.258.139l3.155,5.427c.021.036.223.027.507-.023l25.667-4.543a4.861,4.861,0,0,0,.636-.156c.178-.059.275-.111.258-.139Z" transform="translate(-801.831 -1020.295)" fill="#eee" fill-rule="evenodd"/>
    </g>
    <g id="Grupo_53" data-name="Grupo 53" transform="translate(492.539 960.304)">
      <path id="Trazado_41" data-name="Trazado 41" d="M712.478,1081.7c-.036-.062-.383-.046-.867.039l-25.332,4.484a4.883,4.883,0,0,0-.636.156c-.178.059-.275.111-.258.139l3.155,5.427c.021.036.223.027.507-.023l25.667-4.543a4.881,4.881,0,0,0,.636-.156c.178-.059.275-.111.258-.139Z" transform="translate(-685.383 -1081.665)" fill="#eee" fill-rule="evenodd"/>
    </g>
    <g id="Grupo_54" data-name="Grupo 54" transform="translate(497.334 968.56)">
      <path id="Trazado_42" data-name="Trazado 42" d="M728.074,1108.553c-.036-.062-.383-.047-.868.039l-25.332,4.484a4.9,4.9,0,0,0-.636.156c-.178.059-.275.111-.258.139l3.155,5.427c.021.036.223.027.507-.023l25.667-4.543a4.88,4.88,0,0,0,.636-.156c.178-.059.274-.111.258-.139Z" transform="translate(-700.979 -1108.515)" fill="#eee" fill-rule="evenodd"/>
    </g>
    <g id="Grupo_55" data-name="Grupo 55" transform="translate(502.482 977.213)">
      <path id="Trazado_43" data-name="Trazado 43" d="M744.815,1136.693c-.036-.062-.383-.047-.868.039l-25.332,4.484a4.884,4.884,0,0,0-.636.156c-.178.059-.275.111-.258.139l3.155,5.427c.021.036.223.027.507-.023l25.667-4.543a4.882,4.882,0,0,0,.636-.156c.178-.059.275-.111.258-.139Z" transform="translate(-717.72 -1136.655)" fill="#eee" fill-rule="evenodd"/>
    </g>
    <g id="Grupo_56" data-name="Grupo 56" transform="translate(507.277 985.469)">
      <path id="Trazado_44" data-name="Trazado 44" d="M760.41,1163.543c-.036-.062-.383-.047-.868.039l-25.332,4.484a4.9,4.9,0,0,0-.636.156c-.178.059-.275.111-.258.139l3.155,5.427c.021.036.223.027.506-.023l25.667-4.543a4.881,4.881,0,0,0,.636-.156c.178-.059.275-.111.258-.139Z" transform="translate(-733.315 -1163.505)" fill="#eee" fill-rule="evenodd"/>
    </g>
    <g id="Grupo_57" data-name="Grupo 57" transform="translate(528.723 1022.904)">
      <path id="Trazado_45" data-name="Trazado 45" d="M884.912,1285.275a10,10,0,0,0-2.519.294l-76.51,13.543c-.666.118-1.4.269-1.96.405s-.884.239-.863.277l4.208,7.236a5.839,5.839,0,0,0,1.471-.171l77.524-13.723c.666-.118,1.4-.269,1.96-.405s.884-.24.862-.277Z" transform="translate(-803.06 -1285.249)" fill="#eee" fill-rule="evenodd"/>
    </g>
    <g id="Grupo_58" data-name="Grupo 58" transform="translate(462.232 916.083) rotate(-24.374)">
      <path id="Trazado_46" data-name="Trazado 46" d="M10.289.657A7.742,7.742,0,0,1,14.711,7.5c.031,8.606.007,17.211.01,25.817a5.548,5.548,0,0,1-6.78,5.152,5.5,5.5,0,0,1-3.923-5.094q-.081-12.874,0-25.747a3.1,3.1,0,0,1,2.92-2.957,3.07,3.07,0,0,1,3.07,2.993V27.2c-.045.575-1.029.79-1.091,0,0-6.527.12-13.056,0-19.583a1.957,1.957,0,0,0-1.9-1.857A1.89,1.89,0,0,0,5.109,7.618c-.16,8.579-.054,17.163,0,25.743a4.375,4.375,0,0,0,4.263,4.213,5.25,5.25,0,0,0,1.535-.287,4.353,4.353,0,0,0,2.723-3.918c.053-8.634.076-17.268-.01-25.9A6.677,6.677,0,0,0,7.13,1.059a8.378,8.378,0,0,0-2.171.37A6.643,6.643,0,0,0,1.075,5.21c-.016.04-.048.121-.048.121L0,5.063s.051-.127.077-.189A7.79,7.79,0,0,1,10.163.6Z" transform="translate(0 0)" fill="#6bc1ff"/>
    </g>
  </g>
</svg>
