<svg xmlns="http://www.w3.org/2000/svg" width="195.046" height="109.986" viewBox="0 0 195.046 109.986">
  <g id="Grupo_39" data-name="Grupo 39" transform="translate(-109.644 -185.582)">
    <g id="Grupo_16" data-name="Grupo 16" transform="translate(131.96 196.162)">
      <path id="Trazado_10" data-name="Trazado 10" d="M1052.394,2637.664a3.978,3.978,0,0,0-3.976-3.976H905.955a3.978,3.978,0,0,0-3.976,3.976v91.454a3.978,3.978,0,0,0,3.976,3.976h142.462a3.978,3.978,0,0,0,3.976-3.976Z" transform="translate(-901.979 -2633.688)" fill="#6bc0ff" fill-rule="evenodd"/>
    </g>
    <g id="Grupo_17" data-name="Grupo 17" transform="translate(139.817 205.87)">
      <rect id="Rect치ngulo_6" data-name="Rect치ngulo 6" width="134.701" height="83.177" transform="translate(0)" fill="#5968f6"/>
    </g>
    <g id="Grupo_18" data-name="Grupo 18" transform="translate(109.644 282.526)">
      <path id="Trazado_11" data-name="Trazado 11" d="M755.353,2326.853a1.752,1.752,0,0,1,1.582-.994c10.345-.009,87.018-.009,87.018-.009a2,2,0,0,1,1.494.7,2.532,2.532,0,0,1,.618,1.681h0c0,5.889-4.246,10.666-9.482,10.666H660.5c-5.237,0-9.482-4.776-9.482-10.666h0a2.536,2.536,0,0,1,.619-1.681,2,2,0,0,1,1.493-.7H699.7a1.764,1.764,0,0,1,1.59,1,10.281,10.281,0,0,0,1.592,2.4c1.779.081,49.094.293,50.872,0A10.653,10.653,0,0,0,755.353,2326.853Z" transform="translate(-651.02 -2325.851)" fill="#6bc1ff" fill-rule="evenodd"/>
    </g>
    <g id="Grupo_19" data-name="Grupo 19" transform="translate(158.333 227.5)">
      <path id="Trazado_12" data-name="Trazado 12" d="M732.034,835.672a1.978,1.978,0,0,0-1.979-1.978H654.566a1.978,1.978,0,0,0-1.979,1.978v4.339h79.447Z" transform="translate(-652.587 -833.694)" fill="#6bc1ff" fill-rule="evenodd"/>
    </g>
    <g id="Grupo_20" data-name="Grupo 20" transform="translate(158.333 233.82)">
      <path id="Trazado_13" data-name="Trazado 13" d="M732.034-4855.862a1.978,1.978,0,0,1-1.979,1.978H654.566a1.978,1.978,0,0,1-1.979-1.978v-33.98h79.447Z" transform="translate(-652.587 4889.842)" fill="#fff" fill-rule="evenodd"/>
    </g>
    <g id="Grupo_21" data-name="Grupo 21" transform="translate(214.942 217.782)">
      <path id="Trazado_14" data-name="Trazado 14" d="M378.33,835.672a1.979,1.979,0,0,0-1.979-1.978h-37.1a1.978,1.978,0,0,0-1.979,1.978v4.339h41.06Z" transform="translate(-337.27 -833.694)" fill="#6bc1ff" fill-rule="evenodd"/>
    </g>
    <g id="Grupo_22" data-name="Grupo 22" transform="translate(210.812 227.498)">
      <path id="Trazado_15" data-name="Trazado 15" d="M248.489-4903.076H223.5a1.98,1.98,0,0,1-1.979-1.979V-4939.4h26.968Z" transform="translate(-221.521 4939.398)" fill="rgba(0,0,0,0.07)" fill-rule="evenodd"/>
    </g>
    <g id="Grupo_23" data-name="Grupo 23" transform="translate(214.942 224.1)">
      <path id="Trazado_16" data-name="Trazado 16" d="M378.33-4855.862a1.978,1.978,0,0,1-.58,1.4,1.971,1.971,0,0,1-1.4.58h-37.1a1.973,1.973,0,0,1-1.4-.58,1.978,1.978,0,0,1-.58-1.4v-33.98h41.06Z" transform="translate(-337.27 4889.842)" fill="#fff" fill-rule="evenodd"/>
    </g>
    <g id="Grupo_24" data-name="Grupo 24" transform="translate(205.139 198.977)">
      <ellipse id="Elipse_3" data-name="Elipse 3" cx="2.029" cy="2.029" rx="2.029" ry="2.029" fill="#5969f6"/>
    </g>
    <g id="Grupo_25" data-name="Grupo 25" transform="translate(131.96 196.161)">
      <path id="Trazado_17" data-name="Trazado 17" d="M897.442,2092.219a6.019,6.019,0,0,1,.037.664v12.569a1.5,1.5,0,0,1,1.2,1.466v6.286a1.5,1.5,0,0,1-1.2,1.469v1.672a1.5,1.5,0,0,1,1.2,1.469v11.532a1.5,1.5,0,0,1-1.2,1.467v41.02a6.025,6.025,0,0,1-6.024,6.025H861.3V2096.2a3.978,3.978,0,0,1,3.976-3.976Z" transform="translate(-861.297 -2092.219)" fill="rgba(0,0,0,0.07)" fill-rule="evenodd"/>
    </g>
    <g id="Grupo_26" data-name="Grupo 26" transform="translate(111.963 185.582)">
      <path id="Trazado_18" data-name="Trazado 18" d="M1330.691,1639.135a6.024,6.024,0,0,0-6.025-6.024h-39.2a6.027,6.027,0,0,0-6.025,6.024v78.953a6.027,6.027,0,0,0,6.025,6.024h39.2a6.023,6.023,0,0,0,6.025-6.024Z" transform="translate(-1279.439 -1633.11)" fill="#6bc1ff" fill-rule="evenodd"/>
    </g>
    <g id="Grupo_27" data-name="Grupo 27" transform="translate(148.877 204.145)">
      <path id="Trazado_19" data-name="Trazado 19" d="M403.4,168.065a1.5,1.5,0,0,0-1.5-1.5h-9.4a4.641,4.641,0,0,0-4.64,4.64h0a4.641,4.641,0,0,0,4.64,4.64h9.4a1.5,1.5,0,0,0,1.5-1.5Z" transform="translate(-387.863 -166.567)" fill="#6bc1ff" fill-rule="evenodd"/>
    </g>
    <g id="Grupo_28" data-name="Grupo 28" transform="translate(148.877 215.042)">
      <path id="Trazado_20" data-name="Trazado 20" d="M403.4,262.218a1.5,1.5,0,0,0-1.5-1.5h-8.014a6.025,6.025,0,0,0-6.025,6.024v2.479a6.025,6.025,0,0,0,6.025,6.024H401.9a1.5,1.5,0,0,0,1.5-1.5Z" transform="translate(-387.863 -260.719)" fill="#6bc1ff" fill-rule="evenodd"/>
    </g>
    <g id="Grupo_29" data-name="Grupo 29" transform="translate(134.309 191.232)">
      <path id="Trazado_21" data-name="Trazado 21" d="M267.184,44.663a1.21,1.21,0,0,0-1.21-1.21H258.1a1.21,1.21,0,0,0-1.21,1.21h0a1.21,1.21,0,0,0,1.21,1.21h7.87a1.21,1.21,0,0,0,1.21-1.21Z" transform="translate(-256.893 -43.452)" fill="rgba(0,0,0,0.07)" fill-rule="evenodd"/>
    </g>
    <g id="Grupo_30" data-name="Grupo 30" transform="translate(114.496 198.294)">
      <rect id="Rect치ngulo_7" data-name="Rect치ngulo 7" width="46.185" height="65.578" transform="translate(0 0)" fill="#5968f6"/>
    </g>
    <g id="Grupo_31" data-name="Grupo 31" transform="translate(132.948 265.688)">
      <ellipse id="Elipse_4" data-name="Elipse 4" cx="4.641" cy="4.641" rx="4.641" ry="4.641" fill="rgba(0,0,0,0.07)"/>
    </g>
    <g id="Grupo_32" data-name="Grupo 32" transform="translate(130.576 191.231)">
      <ellipse id="Elipse_5" data-name="Elipse 5" cx="1.211" cy="1.211" rx="1.211" ry="1.211" fill="#5969f6"/>
    </g>
    <g id="Grupo_33" data-name="Grupo 33" transform="translate(117.623 201.523)">
      <path id="Trazado_22" data-name="Trazado 22" d="M1336.753,890.4a.352.352,0,0,0-.352-.353h-39.223a.354.354,0,0,0-.354.353v6.356a.354.354,0,0,0,.354.353H1336.4a.352.352,0,0,0,.352-.353Z" transform="translate(-1296.824 -890.046)" fill="#fff" fill-rule="evenodd"/>
    </g>
    <g id="Grupo_34" data-name="Grupo 34" transform="translate(117.623 212.177)">
      <path id="Trazado_23" data-name="Trazado 23" d="M1336.753,4630.068a1.835,1.835,0,0,0-1.835-1.836h-36.257a1.836,1.836,0,0,0-1.837,1.836v33.051a1.836,1.836,0,0,0,1.837,1.836h36.257a1.835,1.835,0,0,0,1.835-1.836Z" transform="translate(-1296.824 -4628.232)" fill="rgba(0,0,0,0.07)" fill-rule="evenodd"/>
    </g>
    <g id="Grupo_35" data-name="Grupo 35" transform="translate(118.044 253.542)">
      <path id="Trazado_24" data-name="Trazado 24" d="M257.069,890.4a.353.353,0,0,0-.353-.353h-6.972a.353.353,0,0,0-.353.353v6.356a.353.353,0,0,0,.353.353h6.972a.353.353,0,0,0,.353-.353Z" transform="translate(-249.391 -890.046)" fill="#6bc1ff" fill-rule="evenodd"/>
    </g>
    <g id="Grupo_36" data-name="Grupo 36" transform="translate(128.537 253.542)">
      <path id="Trazado_25" data-name="Trazado 25" d="M257.069,890.4a.353.353,0,0,0-.353-.353h-6.972a.353.353,0,0,0-.353.353v6.356a.353.353,0,0,0,.353.353h6.972a.353.353,0,0,0,.353-.353Z" transform="translate(-249.391 -890.046)" fill="#6bc1ff" fill-rule="evenodd"/>
    </g>
    <g id="Grupo_37" data-name="Grupo 37" transform="translate(139.029 253.542)">
      <path id="Trazado_26" data-name="Trazado 26" d="M257.069,890.4a.353.353,0,0,0-.353-.353h-6.972a.353.353,0,0,0-.353.353v6.356a.353.353,0,0,0,.353.353h6.972a.353.353,0,0,0,.353-.353Z" transform="translate(-249.391 -890.046)" fill="#6bc1ff" fill-rule="evenodd"/>
    </g>
    <g id="Grupo_38" data-name="Grupo 38" transform="translate(149.522 253.542)">
      <path id="Trazado_27" data-name="Trazado 27" d="M257.069,890.4a.353.353,0,0,0-.353-.353h-6.972a.353.353,0,0,0-.353.353v6.356a.353.353,0,0,0,.353.353h6.972a.353.353,0,0,0,.353-.353Z" transform="translate(-249.391 -890.046)" fill="#6bc1ff" fill-rule="evenodd"/>
    </g>
  </g>
</svg>
